<?xml version="1.0" standalone="no"?>
<!DOCTYPE svg PUBLIC "-//W3C//DTD SVG 20010904//EN"
 "http://www.w3.org/TR/2001/REC-SVG-20010904/DTD/svg10.dtd">
<svg version="1.0" xmlns="http://www.w3.org/2000/svg"
 width="1280.000000pt" height="1280.000000pt" viewBox="0 0 1280.000000 1280.000000"
 preserveAspectRatio="xMidYMid meet">
<metadata>
Created by potrace 1.14, written by Peter Selinger 2001-2017
</metadata>
<g transform="translate(0.000000,1280.000000) scale(0.100000,-0.100000)"
fill="#000000" stroke="none">
<path d="M0 9160 c0 -2002 3 -3640 6 -3640 3 0 15 11 25 25 11 13 26 22 33 19
28 -11 51 58 70 215 1 13 26 48 54 76 53 55 64 59 157 55 28 -1 66 -3 85 -4
19 0 37 -3 40 -6 18 -18 48 -27 63 -18 10 5 17 5 17 0 0 -5 20 -15 44 -21 24
-6 49 -17 55 -25 12 -14 100 -70 111 -71 5 0 35 -25 89 -75 33 -30 89 -132 96
-175 0 -5 4 -17 7 -25 4 -8 9 -31 11 -50 8 -61 28 -164 40 -204 10 -35 89
-146 110 -155 8 -3 28 -44 33 -69 1 -8 10 -30 19 -50 19 -43 26 -60 55 -127
12 -27 26 -86 31 -130 5 -44 13 -100 19 -125 6 -25 8 -61 5 -80 -4 -19 -9 -48
-12 -65 -6 -45 -36 -149 -43 -155 -12 -9 -40 -108 -40 -139 0 -16 -4 -32 -9
-35 -8 -5 -18 -51 -25 -116 -2 -14 -4 -27 -5 -30 0 -3 -19 -25 -42 -50 -22
-24 -37 -46 -32 -47 10 -4 7 -61 -8 -156 -9 -53 -17 -74 -40 -96 -16 -16 -29
-37 -29 -47 0 -9 3 -15 6 -11 4 3 13 -1 22 -10 13 -12 13 -19 3 -35 -12 -19
-12 -20 10 -4 35 24 49 5 49 -69 0 -34 5 -86 10 -115 10 -51 9 -55 -17 -80
-23 -23 -48 -36 -83 -45 -3 -1 -18 -7 -34 -14 -19 -7 -39 -8 -60 -2 -24 6 -35
5 -42 -4 -17 -25 -69 -28 -95 -6 l-24 20 23 1 c13 0 20 4 17 10 -3 6 -1 10 4
10 22 0 10 30 -14 36 -18 4 -25 13 -25 30 0 13 -5 24 -11 24 -5 0 -7 4 -4 10
3 6 -1 7 -9 4 -11 -4 -16 0 -16 10 0 9 -4 16 -9 16 -5 0 -12 8 -15 18 -3 9
-19 32 -36 50 -16 18 -30 37 -30 43 0 5 -8 9 -19 9 -10 0 -35 11 -55 25 -20
14 -50 25 -65 25 -29 0 -66 13 -159 56 -29 14 -58 22 -64 18 -6 -4 -8 -3 -5 3
4 6 0 16 -8 23 -8 7 -12 16 -9 21 3 5 -2 6 -10 3 -9 -3 -26 5 -40 19 -14 14
-27 23 -30 20 -2 -3 -15 5 -27 16 -13 12 -29 19 -35 17 -6 -2 -24 9 -40 25
-15 16 -31 29 -36 29 -4 0 -8 -846 -8 -1880 l0 -1880 845 0 c832 0 845 0 865
20 11 11 20 24 20 28 0 5 9 17 20 27 11 10 20 24 20 30 0 7 6 15 14 18 14 6
39 44 52 80 3 9 13 17 20 17 8 0 14 5 14 11 0 7 16 26 35 45 19 18 35 37 35
43 0 6 4 11 8 11 5 0 26 18 48 40 85 89 103 106 130 130 49 43 149 105 231
144 17 9 34 20 37 25 4 5 20 12 36 16 17 4 30 10 30 15 0 4 12 11 28 15 15 3
34 12 42 20 8 7 25 16 38 19 18 6 22 15 22 47 0 34 -7 47 -57 99 -79 83 -90
103 -97 179 -4 36 -14 113 -22 169 -18 115 -14 226 9 337 24 112 41 155 69
173 28 19 108 90 108 96 0 16 201 217 228 228 40 16 268 4 241 -12 -7 -5 -3
-8 12 -8 51 1 169 -64 169 -94 0 -4 5 -8 11 -8 5 0 8 4 4 9 -13 21 30 31 260
62 44 5 125 20 181 33 62 14 127 21 170 20 101 -3 263 -29 309 -50 22 -10 42
-18 45 -19 10 -3 66 -27 95 -41 17 -8 48 -30 70 -49 22 -19 45 -35 50 -35 6 0
21 -10 35 -21 38 -32 32 -73 -23 -156 -26 -40 -51 -73 -56 -75 -5 -2 -30 -34
-57 -72 -45 -66 -128 -153 -195 -205 -25 -20 -32 -22 -40 -10 -11 19 -128 15
-168 -6 -17 -8 -39 -15 -51 -15 -11 0 -20 -4 -20 -10 0 -5 -12 -13 -27 -16
-16 -4 -39 -15 -52 -26 -13 -10 -30 -18 -38 -18 -8 0 -27 -6 -41 -14 -15 -8
-45 -22 -67 -31 -22 -9 -56 -25 -76 -36 -20 -10 -48 -19 -61 -19 -14 0 -33 -9
-43 -20 -10 -11 -22 -20 -28 -20 -17 0 -148 -61 -220 -102 -26 -16 -56 -28
-65 -28 -9 0 -28 -12 -41 -25 -21 -22 -40 -30 -64 -26 -16 3 -46 -20 -42 -32
3 -7 -5 -13 -21 -14 -15 0 -31 -8 -36 -17 -5 -9 -22 -16 -38 -16 -17 0 -34 -8
-43 -20 -8 -11 -17 -17 -20 -13 -4 3 -7 -1 -7 -10 0 -11 -8 -17 -24 -17 -28 0
-43 -15 -24 -24 7 -4 2 -4 -11 -2 -16 3 -36 -5 -62 -26 -20 -16 -42 -27 -48
-24 -7 4 -8 1 -5 -8 4 -11 0 -16 -14 -16 -12 0 -24 -5 -27 -10 -4 -6 -26 -20
-51 -31 -25 -12 -52 -35 -65 -55 -11 -19 -27 -34 -35 -34 -8 0 -14 -9 -14 -20
0 -11 -7 -20 -15 -20 -25 0 -73 -40 -86 -71 -9 -24 -17 -29 -45 -29 -23 0 -38
-6 -46 -20 -7 -11 -20 -20 -30 -20 -18 0 -58 -57 -58 -84 0 -11 -9 -16 -27
-17 -49 -1 -98 -22 -99 -44 -1 -11 -2 -26 -3 -34 -1 -11 -5 -10 -16 5 -15 19
-15 19 -30 -1 -9 -11 -13 -25 -11 -32 3 -7 0 -12 -6 -10 -7 1 -17 -8 -23 -21
-8 -19 -21 -26 -45 -24 -8 1 -12 -87 -5 -109 6 -19 29 -19 1100 -19 l1095 0
-10 26 c-13 34 -13 84 0 84 6 0 22 12 35 26 21 23 25 24 25 9 0 -10 -8 -27
-17 -38 -17 -18 -17 -20 10 -41 15 -12 27 -27 27 -34 0 -8 8 -10 25 -6 19 5
25 2 25 -10 0 -14 17 -16 126 -16 127 0 147 7 98 34 -27 15 -31 24 -39 71 -3
23 -12 51 -20 61 -8 11 -15 26 -15 35 0 9 -11 21 -25 27 -15 7 -25 20 -26 34
0 13 -3 32 -6 43 -12 41 -4 214 10 237 8 13 18 36 21 52 7 27 8 27 25 12 10
-10 21 -38 25 -64 3 -26 16 -72 29 -102 21 -51 30 -69 65 -125 7 -11 17 -30
24 -42 26 -52 38 -16 26 82 -20 172 -20 194 -3 267 15 64 56 181 86 243 12 27
117 328 134 385 7 25 18 58 24 73 16 40 14 285 -3 365 -8 37 -19 109 -26 161
-12 92 -37 172 -59 185 -7 5 -5 20 5 47 18 43 16 169 -5 349 -13 112 -14 380
-2 380 6 0 16 -12 23 -28 8 -15 23 -28 36 -30 17 -3 30 -18 47 -57 14 -30 25
-58 25 -64 0 -18 176 -191 196 -191 25 -1 57 -29 75 -65 8 -18 23 -31 37 -33
12 -2 22 -7 22 -12 0 -5 10 -18 22 -29 19 -18 19 -21 5 -27 -10 -3 -17 -9 -17
-13 0 -10 61 -31 89 -31 19 0 21 -4 15 -22 -3 -13 -13 -30 -20 -39 -16 -18 -9
-29 18 -29 10 0 18 -6 18 -14 0 -23 39 -45 104 -57 39 -8 70 -22 91 -41 34
-29 72 -36 106 -17 28 15 120 14 129 -2 6 -9 15 -9 42 4 42 20 142 16 168 -6
31 -26 57 -29 87 -10 15 10 47 19 73 19 61 2 126 12 180 29 25 8 71 20 103 26
33 6 66 18 75 27 30 30 89 60 129 66 80 13 103 18 103 25 0 4 6 8 13 8 22 0
86 44 92 63 7 23 56 60 79 60 9 0 16 4 16 9 0 5 8 12 18 15 40 16 84 44 131
87 10 9 30 19 45 23 19 5 26 13 26 31 0 13 12 36 26 50 17 17 23 32 19 45 -5
14 2 23 27 36 18 9 40 23 48 30 44 41 78 62 108 69 43 9 81 51 88 97 5 28 20
50 58 86 28 27 74 79 101 116 28 38 87 109 133 160 84 92 179 236 188 285 8
47 -8 57 -54 31 -22 -12 -45 -33 -51 -46 -6 -13 -25 -30 -43 -37 -40 -17 -98
-70 -98 -89 0 -18 -109 -77 -130 -70 -8 2 -22 11 -32 19 -25 22 -94 0 -134
-44 -22 -24 -38 -34 -49 -29 -24 9 -54 -10 -48 -32 6 -24 -21 -47 -44 -37 -16
7 -15 9 7 15 18 6 20 8 7 9 -10 1 -25 8 -33 16 -18 17 -50 20 -59 5 -9 -15
-96 -12 -129 5 -32 17 -66 20 -66 5 0 -5 7 -10 15 -10 8 0 15 -7 15 -15 0 -8
-7 -15 -15 -15 -8 0 -15 5 -15 10 0 6 -8 14 -17 17 -10 4 -23 13 -29 21 -14
19 -34 7 -34 -21 0 -12 -1 -46 -1 -75 -2 -37 2 -57 12 -63 12 -8 11 -12 -4
-23 -10 -8 -15 -20 -11 -29 13 -34 -45 -87 -94 -87 -12 0 -24 -11 -32 -29 -10
-24 -9 -33 6 -55 25 -39 10 -42 -25 -5 -36 37 -77 46 -91 19 -6 -10 -20 -20
-32 -22 -12 -2 -28 -13 -34 -26 -6 -13 -15 -23 -20 -23 -5 0 -16 -6 -24 -14
-8 -7 -25 -16 -37 -19 -11 -4 -28 -18 -37 -31 -10 -16 -26 -25 -42 -25 -14 0
-35 -5 -47 -12 -12 -6 -31 -13 -42 -14 -11 -2 -56 -8 -99 -14 -44 -6 -90 -17
-102 -25 -12 -7 -30 -13 -40 -13 -11 1 -41 -9 -67 -22 -43 -20 -50 -21 -63 -8
-13 12 -21 13 -49 4 -19 -7 -43 -20 -53 -29 -10 -9 -33 -20 -50 -23 -32 -7
-116 11 -139 29 -9 6 -13 6 -13 -2 0 -24 -44 -7 -50 19 -5 20 -11 24 -32 22
-15 -2 -41 4 -58 13 -23 12 -35 14 -43 6 -8 -8 -15 -2 -24 20 -12 28 -17 31
-43 25 -27 -5 -30 -3 -30 19 0 30 -9 36 -73 41 -94 8 -106 10 -119 21 -7 5
-21 13 -31 16 -9 4 -16 10 -15 14 1 4 -4 20 -11 34 -10 21 -10 31 -1 49 9 16
9 20 0 15 -6 -4 -19 3 -30 15 -11 13 -21 17 -25 10 -10 -16 -28 -12 -22 5 9
23 -13 29 -29 9 -13 -17 -15 -18 -24 -3 -5 9 -22 20 -36 23 -25 7 -26 9 -19
61 7 58 3 65 -21 40 -23 -23 -53 -19 -60 8 -6 28 -85 97 -109 97 -21 0 -11 37
16 63 11 10 19 24 19 32 0 7 7 15 15 17 11 2 -1 19 -38 57 -68 68 -91 78 -112
48 -19 -27 -19 -35 0 -71 22 -43 11 -49 -68 -41 -75 7 -70 4 -149 95 -7 8 -22
33 -33 55 -11 22 -35 61 -53 87 -17 26 -32 49 -32 53 0 3 -22 33 -48 68 -27
34 -74 107 -106 162 -32 55 -68 111 -80 125 -20 24 -50 83 -106 203 -12 27
-37 72 -56 100 -19 28 -34 56 -34 61 0 10 -32 83 -56 128 -8 14 -14 32 -14 40
-1 7 -13 28 -28 45 l-28 33 -31 -18 c-17 -9 -44 -33 -59 -52 -37 -45 -47 -53
-114 -92 -30 -17 -68 -42 -83 -55 -16 -13 -39 -23 -52 -23 -12 0 -71 -9 -129
-21 -119 -23 -201 -22 -331 4 -104 20 -126 29 -169 69 -19 18 -55 48 -80 66
-62 46 -162 142 -158 153 1 5 -1 8 -5 7 -5 -2 -9 1 -10 5 0 5 -12 21 -25 35
-22 26 -37 49 -63 99 -7 13 -15 20 -18 16 -6 -6 -10 21 -10 70 0 9 -3 17 -7
17 -8 0 -39 74 -61 144 -13 43 -7 179 9 199 5 7 13 23 17 37 4 14 14 32 22 42
8 9 15 22 17 30 7 44 42 97 81 121 24 15 60 53 81 85 22 31 45 63 52 70 29 31
119 93 142 98 14 3 43 13 65 22 21 9 39 15 40 13 0 -3 23 7 50 21 118 61 208
80 329 70 57 -5 89 -4 94 3 15 20 13 73 -8 171 -37 171 -66 328 -76 414 -3 30
-12 78 -20 105 -26 93 -43 202 -37 241 7 53 -21 202 -46 247 -16 29 -18 37 -6
37 37 0 63 23 68 60 5 37 42 100 60 100 5 0 6 -32 2 -74 -9 -91 -3 -96 105
-89 74 5 77 5 83 -18 8 -32 -4 -41 -55 -44 -24 -1 -53 -3 -66 -4 -13 0 -20 -5
-17 -11 8 -12 165 -13 165 -1 0 5 28 14 61 20 34 6 64 13 68 16 9 10 -22 25
-51 25 -18 0 -28 5 -28 15 0 11 11 15 38 15 56 0 78 9 91 37 11 23 14 24 87
20 41 -2 79 -8 85 -14 5 -5 26 -7 47 -4 29 5 40 3 53 -13 14 -16 30 -19 110
-20 l94 -1 5 30 c6 34 35 42 35 10 1 -31 12 -42 52 -56 33 -11 37 -10 53 11
17 23 18 23 126 11 80 -9 132 -9 193 -2 112 14 201 0 201 -31 0 -7 -21 -31
-47 -55 -36 -33 -51 -41 -70 -37 -13 4 -24 2 -24 -5 -1 -6 -2 -17 -3 -23 0 -7
-16 -14 -34 -16 -26 -3 -34 1 -41 19 -8 23 -8 23 -19 2 -10 -19 -22 -21 -149
-25 -105 -3 -146 -9 -171 -22 -19 -10 -46 -16 -60 -15 -30 2 -81 -9 -98 -22
-11 -9 -137 -10 -217 -2 -34 4 -55 12 -71 30 -20 21 -29 24 -56 18 l-33 -7 23
-18 23 -17 -24 -17 c-36 -25 -57 -19 -84 24 -27 44 -82 63 -110 40 -8 -7 -36
-17 -62 -21 -25 -5 -54 -15 -62 -23 -9 -8 -27 -16 -41 -18 -16 -2 -26 -11 -30
-28 -5 -21 -11 -24 -36 -22 -19 2 -36 -3 -44 -13 -18 -22 -16 -84 5 -139 10
-25 15 -49 12 -52 -3 -3 3 -29 12 -57 10 -29 21 -74 25 -100 12 -76 34 -129
71 -167 18 -19 43 -61 55 -93 26 -70 51 -96 85 -89 14 2 28 8 31 13 3 5 14 4
25 -1 11 -6 23 -8 28 -5 5 3 18 -10 29 -28 38 -60 66 -77 114 -69 31 6 43 13
42 24 -1 10 4 14 11 12 7 -3 16 0 20 6 6 9 9 9 15 0 4 -7 6 8 3 34 -5 39 -2
51 22 82 26 34 30 36 69 30 58 -9 99 -56 93 -108 -2 -21 0 -35 5 -32 5 3 22
-9 40 -28 17 -18 42 -40 57 -49 24 -14 28 -14 60 5 51 30 111 35 246 21 52 -5
84 -14 91 -24 10 -13 12 -12 18 6 4 14 23 26 56 37 53 17 84 21 76 8 -3 -4 9
-7 25 -6 24 2 32 -3 39 -22 7 -17 17 -24 35 -24 14 0 25 -6 25 -12 0 -9 4 -8
10 2 6 10 10 11 10 3 0 -31 72 -3 164 64 58 43 96 55 96 30 0 -8 11 -19 24
-27 22 -11 28 -10 54 11 32 26 42 42 79 134 23 59 23 61 6 93 -18 32 -18 34 6
75 13 23 62 116 108 207 59 118 83 176 83 202 0 20 6 41 13 45 13 8 37 90 62
214 27 136 -11 350 -61 340 -11 -2 -47 -5 -80 -8 -61 -5 -62 -4 -83 30 -11 19
-21 44 -21 56 0 14 -6 21 -20 21 -12 0 -20 -7 -20 -17 0 -15 -1 -15 -18 0 -16
15 -18 14 -31 -14 -10 -22 -19 -29 -39 -28 -15 1 -47 -10 -72 -23 -34 -19 -44
-30 -42 -46 3 -17 -5 -23 -38 -32 -61 -16 -82 -10 -94 27 -6 18 -14 34 -18 35
-4 2 -21 -8 -38 -22 -24 -20 -30 -33 -30 -63 0 -39 -33 -97 -44 -78 -4 5 -28
13 -54 17 -52 7 -102 29 -102 44 0 23 -46 7 -86 -30 -24 -22 -47 -40 -52 -40
-5 0 -14 11 -20 25 -6 14 -16 25 -22 25 -7 0 -18 7 -26 15 -12 12 -19 12 -34
3 -16 -11 -17 -14 -5 -21 19 -10 19 -27 0 -27 -8 0 -26 15 -40 33 -22 27 -27
45 -30 107 -2 41 -1 68 1 60 5 -18 59 -44 77 -37 7 3 19 35 26 71 7 36 17 69
22 72 5 3 5 13 -1 24 -9 17 -4 23 30 45 22 14 47 37 57 51 16 25 16 27 -7 44
-14 11 -21 23 -17 33 3 9 0 21 -8 27 -10 8 -20 0 -46 -40 -26 -41 -37 -50 -54
-46 -11 3 -24 6 -28 6 -5 0 -7 17 -5 37 2 33 0 37 -25 44 -24 6 -29 3 -42 -25
-9 -18 -14 -48 -13 -66 2 -27 -1 -35 -17 -38 -56 -11 -59 -47 -7 -94 33 -29
37 -38 29 -56 -7 -15 -16 -21 -28 -17 -12 4 -23 -2 -35 -20 -13 -20 -25 -25
-56 -25 -31 0 -45 -6 -68 -32 -16 -18 -37 -47 -45 -64 -8 -18 -21 -34 -28 -37
-17 -5 -87 14 -87 24 0 5 -11 7 -25 3 -17 -4 -25 -2 -26 7 -4 84 -2 116 9 127
16 18 15 32 -3 32 -31 0 -55 -42 -55 -95 0 -29 -3 -54 -6 -58 -11 -11 -34 21
-28 37 4 9 0 18 -10 22 -9 3 -20 23 -26 44 -13 47 -71 88 -91 64 -6 -8 -16
-14 -21 -14 -5 0 -21 -9 -35 -19 -13 -11 -31 -17 -39 -14 -19 7 -44 56 -44 86
0 13 -6 32 -14 42 -13 18 -15 18 -42 -11 -16 -17 -37 -40 -47 -53 -23 -29 -37
-19 -37 29 0 33 6 44 42 75 47 39 172 115 192 115 7 0 27 11 46 25 19 14 44
25 56 25 12 0 35 7 50 15 16 8 37 15 46 15 10 0 32 6 50 14 18 8 85 23 148 33
146 23 463 22 585 -1 103 -21 179 -21 195 -1 16 19 58 19 157 0 44 -8 134 -15
206 -15 107 0 127 2 127 15 0 9 -7 18 -15 21 -8 4 -15 18 -15 34 0 19 -6 29
-20 33 -13 3 -20 14 -20 30 0 30 -10 37 -59 48 -40 8 -107 32 -116 41 -12 12
9 89 31 113 13 15 24 30 24 35 0 5 8 13 17 19 10 5 15 12 12 16 -4 3 -20 -6
-35 -21 -27 -25 -101 -77 -168 -117 -22 -14 -42 -17 -80 -14 -83 8 -87 11 -80
71 5 39 16 62 45 97 43 52 46 59 24 59 -18 0 -18 1 -3 32 42 78 180 226 258
273 25 16 63 45 85 66 21 21 52 44 68 50 26 11 31 10 46 -9 16 -22 16 -22 29
-2 7 11 19 20 27 20 8 0 15 5 15 10 0 6 5 10 11 10 7 0 9 -11 5 -32 -4 -18 -9
-62 -11 -98 -4 -58 -3 -63 10 -45 8 11 23 29 33 40 11 11 22 27 25 36 7 20 44
31 44 14 0 -7 -6 -11 -14 -8 -18 7 -17 -18 2 -43 14 -19 15 -19 20 1 4 11 24
33 46 49 21 17 39 35 39 41 0 5 9 16 20 23 11 7 20 19 20 27 0 8 7 15 15 15 8
0 15 6 15 13 0 7 9 20 20 30 11 9 20 25 20 35 0 16 20 32 62 48 10 3 20 14 23
24 3 9 25 31 49 48 40 29 44 30 60 14 16 -16 18 -16 32 2 8 11 14 31 15 45 0
21 3 18 16 -16 11 -34 20 -43 38 -43 23 0 35 -17 35 -50 0 -30 19 -33 30 -5
10 27 65 85 80 85 6 0 10 8 10 18 0 10 3 13 8 7 4 -6 33 -18 64 -28 31 -10 67
-26 79 -36 17 -14 27 -16 39 -9 24 15 90 -29 90 -59 0 -13 6 -23 13 -23 8 0
22 -9 32 -19 10 -12 33 -21 58 -23 36 -3 44 -8 67 -47 20 -36 35 -47 75 -61
74 -26 94 -39 160 -105 133 -133 230 -218 312 -272 47 -32 111 -80 141 -108
221 -203 225 -208 194 -251 -16 -23 -22 -24 -90 -22 -60 2 -76 -1 -86 -15 -18
-24 -85 -50 -112 -43 -12 3 -55 2 -94 -4 -121 -17 -397 -21 -410 -5 -9 11 -20
11 -63 0 -29 -7 -64 -17 -78 -23 -32 -13 -79 -67 -79 -92 0 -10 -3 -25 -6 -33
-3 -9 2 -17 13 -21 10 -3 142 -10 293 -17 198 -8 279 -15 290 -25 10 -9 59
-14 150 -17 248 -8 505 -26 540 -36 19 -6 56 -11 81 -11 55 0 255 -65 289 -94
8 -8 27 -16 42 -20 16 -3 28 -11 28 -16 0 -5 18 -14 40 -20 22 -6 40 -15 40
-20 0 -11 30 -13 53 -4 13 5 13 12 1 57 -7 29 -19 62 -25 74 -15 29 5 73 74
156 31 39 49 72 53 98 6 37 8 39 24 24 9 -8 22 -33 29 -55 12 -42 20 -47 39
-28 9 9 17 7 35 -10 13 -12 27 -22 31 -22 16 0 85 -81 106 -125 20 -41 21 -54
15 -172 -3 -71 -9 -146 -12 -168 -9 -70 -4 -245 8 -267 6 -11 13 -66 16 -122
3 -55 9 -107 13 -114 4 -8 33 -25 66 -38 47 -19 77 -24 150 -24 88 0 91 1 126
33 20 17 47 55 61 82 14 28 41 60 59 73 56 36 63 26 23 -34 -14 -20 -25 -46
-25 -58 1 -22 44 -61 59 -52 4 3 21 -8 36 -24 15 -16 32 -27 36 -24 5 2 16 -7
25 -21 9 -14 34 -35 55 -46 54 -27 70 -93 40 -171 -5 -14 -15 -29 -20 -33 -12
-7 -14 -44 -5 -69 3 -9 17 -16 31 -16 14 0 36 -13 53 -32 16 -17 31 -30 34
-27 2 2 6 81 10 174 3 94 9 197 12 231 5 48 2 64 -10 77 -9 8 -16 22 -16 30 0
8 -9 17 -20 20 -14 4 -20 13 -20 34 1 26 1 27 15 9 8 -10 16 -24 18 -29 2 -6
30 6 63 26 32 21 68 43 79 50 11 7 47 32 80 57 33 25 78 57 100 70 22 13 92
62 155 109 103 77 173 127 219 156 9 6 29 20 45 33 28 22 89 52 107 52 25 0
-2 -174 -34 -223 -12 -19 -28 -67 -27 -82 0 -3 -7 -20 -17 -38 -9 -17 -18 -37
-19 -44 -1 -7 -17 -32 -36 -55 -19 -24 -46 -62 -62 -84 -38 -59 -164 -178
-206 -196 -68 -30 -126 -46 -230 -63 -58 -10 -112 -18 -120 -18 -29 0 -39 -28
-24 -70 35 -99 -1 -369 -65 -487 -97 -179 -177 -335 -211 -415 -13 -27 -26
-57 -31 -65 -5 -8 -12 -22 -15 -30 -32 -77 -101 -194 -157 -265 -24 -30 -115
-176 -129 -208 -10 -21 -18 -53 -18 -73 0 -86 -81 -180 -179 -207 -87 -24
-101 -22 -204 29 -16 8 -35 14 -42 14 -24 0 -59 -91 -90 -235 -12 -56 -34
-119 -54 -155 -5 -9 -12 -30 -16 -48 -7 -36 -68 -158 -91 -183 -8 -8 -14 -21
-14 -27 0 -6 -6 -17 -13 -24 -16 -17 -47 -97 -47 -124 0 -43 51 -56 132 -34
21 6 40 11 43 10 3 0 12 6 20 14 16 16 145 14 205 -4 19 -5 53 -10 75 -10 22
0 56 -5 75 -11 87 -27 105 -28 180 -12 79 16 148 18 350 12 137 -5 167 -15
222 -76 16 -17 50 -44 76 -59 56 -32 102 -73 102 -91 0 -7 -16 -31 -36 -53
l-36 -40 26 -35 c26 -33 38 -40 61 -35 6 1 38 4 72 5 l62 3 -1 -28 c-1 -17 -5
-27 -11 -23 -6 3 -7 1 -3 -6 4 -6 1 -23 -8 -36 -16 -24 -23 -55 -9 -42 11 11
33 -14 33 -39 0 -12 -7 -30 -16 -39 -15 -15 -18 -15 -36 4 -22 24 -37 29 -18
6 11 -13 10 -14 -5 -9 -15 6 -17 -2 -13 -99 1 -58 0 -103 -4 -100 -5 2 -8 -6
-8 -20 0 -13 -12 -48 -27 -78 -15 -30 -27 -56 -28 -59 -6 -25 -34 -71 -34 -58
-1 9 -6 29 -13 43 l-11 25 -16 -24 c-44 -65 -57 -82 -71 -90 -32 -20 -114
-103 -143 -145 -16 -24 -32 -58 -33 -75 -2 -17 -13 -39 -25 -49 -12 -9 -18
-17 -13 -17 15 0 -62 -51 -128 -85 -68 -35 -198 -65 -278 -65 -21 0 -49 -6
-63 -13 -15 -8 -37 -13 -49 -12 -13 1 -25 -1 -28 -4 -3 -4 -17 -14 -32 -23
-24 -16 -25 -20 -17 -60 6 -24 16 -48 24 -54 8 -6 15 -20 15 -31 0 -11 9 -28
20 -38 11 -10 20 -26 20 -35 0 -10 7 -23 15 -30 8 -7 15 -19 15 -27 0 -7 6
-16 14 -19 8 -3 18 -19 21 -35 4 -18 13 -29 23 -29 9 -1 35 -9 57 -20 22 -11
45 -19 51 -20 7 0 22 -14 35 -31 30 -37 53 -66 85 -101 13 -15 24 -30 24 -32
0 -3 13 -24 29 -48 31 -46 62 -114 55 -120 -2 -3 9 -17 25 -32 26 -25 28 -31
19 -59 -6 -18 -13 -48 -17 -67 -5 -28 -12 -35 -38 -41 -30 -6 -31 -5 -22 19 5
14 8 25 7 26 -2 1 -15 7 -30 14 -31 13 -34 28 -13 56 24 31 18 53 -24 95 -29
29 -42 53 -51 93 -9 39 -18 56 -35 65 -21 9 -25 7 -34 -16 -6 -14 -9 -44 -9
-65 2 -28 -3 -42 -16 -50 -10 -6 -27 -19 -38 -28 -15 -13 -24 -15 -34 -7 -17
14 -7 39 16 39 14 0 18 7 18 31 -1 20 5 35 15 41 12 6 16 20 14 42 -1 19 -5
32 -8 30 -10 -6 -36 27 -64 81 -15 28 -37 60 -51 73 -13 13 -24 28 -24 35 -1
21 -44 64 -71 71 -28 6 -39 29 -39 83 0 22 -8 38 -25 51 -14 11 -26 32 -27 47
-3 32 -18 45 -61 54 -28 6 -32 10 -29 37 2 24 -3 33 -23 44 -16 8 -25 22 -25
36 0 16 -10 28 -28 38 -30 15 -122 111 -122 127 0 5 -15 26 -33 46 -23 26 -37
56 -46 95 -10 47 -22 68 -61 110 -39 42 -49 60 -54 99 -4 26 -17 76 -30 110
l-23 61 -12 -63 c-7 -35 -17 -77 -22 -93 -5 -16 -9 -43 -9 -60 0 -17 -9 -51
-20 -75 -11 -24 -20 -54 -20 -68 0 -13 -9 -41 -19 -61 -27 -52 -65 -126 -101
-199 -17 -35 -36 -65 -41 -68 -5 -4 -15 -21 -23 -38 -7 -18 -53 -84 -102 -147
-81 -104 -173 -232 -199 -277 -6 -10 -22 -36 -36 -58 -14 -22 -41 -67 -59
-100 -50 -91 -53 -97 -83 -142 -15 -24 -27 -46 -27 -51 0 -4 -6 -14 -12 -20
-13 -13 -80 -129 -97 -169 -6 -12 -22 -41 -38 -65 -15 -24 -45 -79 -68 -123
-22 -44 -55 -102 -73 -130 -17 -27 -32 -55 -32 -61 0 -6 -6 -17 -14 -23 -8 -7
-18 -26 -21 -42 -4 -16 -11 -29 -16 -29 -5 0 -12 -12 -15 -27 -4 -16 -19 -46
-33 -68 -14 -22 -31 -51 -38 -65 -7 -14 -17 -33 -23 -42 -20 -34 -30 -53 -55
-103 -36 -70 -87 -163 -157 -287 -58 -102 -64 -109 -140 -159 -44 -28 -87 -63
-96 -77 -8 -13 -25 -28 -36 -32 -12 -5 1108 -9 2487 -9 l2508 -1 -3 23 c-3 24
-48 39 -48 15 0 -25 -61 -15 -92 15 -15 16 -28 32 -28 37 0 7 -33 20 -52 20
-5 0 -8 -7 -8 -15 0 -9 -11 -21 -25 -27 -14 -6 -25 -14 -25 -18 0 -11 -36 -19
-50 -10 -6 4 -11 10 -11 14 1 3 -2 18 -5 34 -10 39 -33 63 -58 57 -17 -4 -26
3 -44 35 -21 38 -22 42 -7 70 9 17 13 35 10 40 -3 6 -28 10 -56 10 -38 0 -49
-4 -49 -16 0 -8 -4 -13 -10 -9 -5 3 -8 34 -6 69 4 74 2 79 -39 93 -28 10 -32
8 -62 -26 l-31 -36 -26 24 c-35 32 -34 74 1 107 26 24 26 24 7 47 -10 12 -23
25 -27 28 -5 3 -7 10 -5 14 5 12 -45 17 -52 5 -4 -6 -22 -13 -41 -16 -30 -5
-37 -2 -46 18 -7 12 -12 17 -12 11 -1 -17 -46 -16 -60 1 -6 7 -9 21 -5 30 3 9
1 16 -5 16 -6 0 -16 12 -21 26 -8 20 -14 24 -28 18 -9 -4 -32 -7 -50 -6 -19 1
-49 -5 -67 -14 -40 -19 -60 -12 -43 15 14 23 2 71 -18 71 -8 0 -13 4 -10 9 4
5 -3 7 -14 4 -14 -4 -20 0 -20 11 0 9 -8 16 -19 16 -10 0 -24 7 -32 16 -8 10
-23 14 -41 12 -23 -4 -30 0 -34 17 -3 12 -22 36 -43 54 -28 24 -37 39 -34 55
5 24 -36 66 -63 66 -7 0 -15 12 -19 28 -3 15 -16 32 -28 38 -12 5 -21 15 -20
22 2 7 -1 12 -6 12 -6 0 -13 20 -16 45 -7 43 -8 44 -50 51 -24 3 -48 3 -54 0
-5 -4 -12 -2 -16 4 -4 6 -12 7 -18 3 -7 -4 -5 1 3 11 13 16 24 18 90 11 41 -4
100 -8 130 -9 34 -1 64 -8 80 -19 25 -18 85 -23 94 -9 8 13 -91 50 -152 58
-30 4 -56 12 -58 18 -3 7 -16 13 -31 14 -15 1 -41 17 -60 37 -22 22 -43 35
-60 35 -32 0 -63 34 -63 71 0 25 -22 59 -38 59 -4 0 -18 23 -31 51 -25 56
-101 135 -135 142 -11 2 0 5 25 6 30 1 51 -4 58 -13 7 -8 25 -18 41 -21 16 -3
34 -13 41 -21 6 -8 22 -14 35 -14 13 0 27 -6 31 -13 4 -7 47 -32 96 -56 48
-24 87 -47 87 -52 0 -4 14 -10 30 -14 17 -4 30 -10 30 -15 0 -4 12 -13 28 -19
15 -6 51 -25 81 -41 30 -16 62 -31 70 -34 9 -3 23 -9 31 -14 52 -30 101 -52
115 -52 9 0 23 -7 31 -15 9 -8 24 -15 35 -15 11 0 39 -10 62 -22 83 -43 95
-48 114 -48 10 0 27 -6 38 -14 11 -7 35 -17 54 -21 18 -4 57 -17 85 -30 75
-33 199 -75 222 -75 11 0 29 -7 40 -15 10 -8 28 -15 39 -15 11 0 33 -7 48 -15
15 -8 45 -17 65 -21 20 -4 46 -13 57 -20 11 -8 29 -14 40 -14 11 0 33 -7 48
-15 15 -8 45 -17 65 -21 20 -4 49 -13 64 -20 15 -8 40 -14 55 -14 16 0 37 -6
48 -14 11 -7 41 -16 67 -19 26 -4 56 -11 65 -16 10 -6 38 -15 63 -20 49 -10
116 -33 167 -56 17 -8 42 -15 55 -15 12 0 32 -7 42 -15 11 -8 31 -15 44 -15
13 0 33 -5 45 -12 22 -12 82 -28 192 -53 33 -8 92 -24 130 -36 39 -11 88 -26
110 -31 22 -5 54 -14 70 -19 44 -15 113 -35 170 -49 28 -7 64 -18 80 -25 17
-7 40 -15 53 -18 l22 -5 0 2288 0 2289 -210 -3 c-171 -2 -214 0 -231 12 -11 8
-23 12 -26 9 -3 -3 -32 8 -64 25 -37 18 -88 34 -132 40 -119 16 -133 29 -157
148 -15 73 -47 129 -73 130 -10 0 -33 16 -51 36 -22 24 -38 34 -46 29 -9 -6
-11 -4 -5 5 6 10 4 12 -9 7 -9 -4 -14 -3 -11 2 3 5 -3 12 -12 15 -10 3 -29 27
-43 53 -14 27 -31 47 -38 45 -7 -1 -11 1 -11 5 4 23 -3 35 -16 29 -8 -3 -14 0
-12 7 1 6 -9 13 -23 15 -14 2 -31 9 -39 15 -12 10 -13 9 -7 -3 5 -11 4 -11 -6
1 -7 9 -29 20 -48 24 -48 10 -53 14 -38 33 10 12 10 14 1 8 -9 -5 -13 -1 -13
11 0 10 -9 25 -20 33 -11 8 -20 21 -20 28 0 9 -6 12 -16 8 -8 -3 -13 -2 -10 3
3 5 -3 11 -14 14 -11 3 -20 1 -20 -4 0 -5 -4 -9 -10 -9 -5 0 -10 16 -10 35 0
24 -5 35 -15 35 -10 0 -15 10 -15 34 0 47 9 66 31 66 10 0 19 5 19 10 0 6 8
10 18 10 22 0 47 37 29 43 -7 2 4 9 25 16 20 7 49 27 65 45 15 18 32 33 37 33
4 0 30 21 55 45 58 56 70 62 151 82 65 16 91 21 165 32 22 4 45 10 50 15 6 4
35 10 65 13 30 4 66 8 80 11 66 12 306 20 405 12 43 -3 159 25 172 41 15 20
17 78 3 87 -6 4 -9 14 -8 23 4 23 -65 41 -93 24 -10 -7 -27 -12 -36 -12 -25 0
-94 25 -102 37 -3 5 -14 12 -23 16 -16 6 -23 25 -19 50 1 5 -3 6 -8 2 -6 -3
-17 7 -25 23 -8 16 -33 45 -55 65 -23 20 -41 40 -41 43 0 3 -6 11 -13 19 -11
10 -12 28 -6 70 4 31 9 163 10 293 1 131 6 246 10 258 4 11 22 35 39 53 43 42
61 107 59 207 -3 90 13 129 71 177 16 14 26 28 22 32 -4 5 -1 5 6 1 7 -4 27 5
49 23 21 17 43 31 50 31 7 0 13 4 13 8 0 19 98 5 145 -21 26 -15 49 -27 51
-27 2 0 4 1100 4 2445 l0 2445 -672 0 c-636 -1 -671 -1 -646 -17 15 -10 30
-23 33 -31 7 -18 -11 -49 -32 -56 -10 -3 -26 -19 -35 -36 -11 -19 -25 -30 -39
-30 -21 0 -22 3 -16 63 11 116 39 106 -298 106 l-294 1 14 -27 c15 -29 11 -64
-11 -100 -26 -42 -36 -27 -32 52 l3 75 -5387 0 -5388 0 0 -3640z m11246 3584
c21 -51 15 -109 -11 -109 -17 0 -21 10 -29 57 -13 90 11 121 40 52z m642 -7
c3 -15 -2 -18 -25 -15 -17 2 -29 10 -31 21 -3 15 2 18 25 15 17 -2 29 -10 31
-21z m539 7 c10 -27 -14 -41 -44 -24 -41 23 -40 40 1 40 24 0 39 -5 43 -16z
m-291 -99 c-3 -9 -10 -13 -16 -10 -12 7 -13 49 -3 85 7 23 8 21 16 -17 5 -23
7 -49 3 -58z m-5416 71 c30 -7 78 -17 105 -20 28 -4 73 -13 100 -21 48 -13 72
-18 230 -50 82 -16 144 -34 240 -70 39 -14 83 -30 98 -35 16 -5 34 -13 40 -18
7 -4 39 -18 72 -31 71 -27 68 -25 145 -78 33 -24 64 -43 68 -43 5 0 44 -24 87
-53 163 -109 300 -202 305 -207 3 -3 37 -31 75 -62 77 -62 234 -221 279 -281
71 -97 226 -342 226 -358 0 -7 9 -30 19 -53 59 -124 84 -184 102 -244 12 -37
30 -93 40 -125 11 -31 19 -63 19 -70 0 -28 103 -97 145 -97 20 0 173 -77 257
-128 36 -23 79 -44 95 -48 31 -7 86 -33 148 -70 22 -13 47 -26 55 -29 72 -28
211 -118 276 -178 16 -15 38 -30 48 -33 11 -4 41 -22 68 -40 26 -19 51 -34 56
-34 4 0 15 -8 23 -17 9 -10 26 -25 39 -33 27 -17 122 -93 164 -130 15 -14 39
-44 53 -67 14 -24 29 -43 34 -43 5 0 9 -9 9 -20 0 -10 9 -24 20 -30 11 -6 20
-17 20 -24 0 -8 7 -16 15 -20 18 -7 20 -46 2 -46 -21 0 -57 30 -57 48 -1 18
-55 80 -86 98 -10 6 -28 25 -39 42 -11 17 -28 31 -38 32 -9 0 -25 13 -35 29
-14 24 -21 27 -36 19 -13 -7 -22 -6 -35 6 -10 10 -25 14 -35 10 -16 -6 -16 -8
0 -25 9 -10 13 -23 9 -28 -3 -6 14 -36 39 -67 44 -54 60 -104 37 -118 -10 -7
-164 143 -183 178 -40 74 -74 126 -83 126 -5 0 -17 15 -25 33 -11 23 -27 36
-55 46 -24 8 -51 28 -65 48 -19 25 -31 32 -49 29 -36 -6 -124 29 -138 55 -7
14 -22 23 -40 24 -31 2 -106 20 -170 40 -39 13 -42 12 -56 -8 -14 -22 -12 -51
2 -43 4 3 8 -1 8 -9 0 -22 -66 -29 -88 -9 -10 9 -19 12 -19 7 0 -17 -25 -22
-63 -13 -25 5 -42 4 -55 -6 -17 -12 -22 -10 -46 15 -29 30 -29 61 0 109 20 31
2 65 -30 56 -13 -3 -29 0 -37 8 -28 25 -52 38 -136 75 -18 7 -35 18 -38 23 -3
6 -27 10 -53 10 -28 0 -57 7 -71 16 -16 12 -34 15 -62 10 -23 -4 -39 -2 -39 4
0 25 -64 41 -180 45 -65 1 -123 5 -128 9 -5 3 -42 8 -81 11 -67 5 -72 3 -81
-18 -9 -21 -9 -21 -9 4 -1 15 -8 32 -16 39 -12 10 -15 7 -20 -17 -15 -64 -27
-71 -44 -23 -12 35 -9 34 -52 16 -47 -19 -111 -28 -128 -17 -10 6 -24 2 -45
-13 -28 -21 -38 -22 -96 -16 -36 4 -87 16 -115 27 -27 11 -77 20 -109 21 -45
1 -68 7 -96 27 -20 14 -41 25 -47 25 -18 0 -71 30 -76 43 -8 21 -167 98 -215
104 -27 4 -46 12 -53 24 -8 16 -14 17 -30 9 -20 -11 -46 -7 -86 12 -16 8 -33
8 -57 1 -20 -6 -40 -7 -47 -2 -8 5 -30 8 -49 7 -25 -1 -50 9 -88 34 -48 32
-56 35 -90 26 -20 -5 -47 -12 -59 -15 -16 -4 -35 5 -62 27 -23 17 -45 29 -50
26 -5 -4 -42 1 -83 11 -40 9 -93 16 -117 15 -28 -2 -54 4 -70 15 -19 12 -47
17 -102 18 -58 0 -82 4 -96 17 -17 16 -20 16 -43 -2 -14 -11 -32 -20 -41 -20
-19 0 -42 24 -32 33 3 4 -3 7 -15 7 -11 0 -22 -6 -25 -12 -3 -10 -11 -10 -38
1 -58 23 -365 57 -384 42 -5 -5 -65 -7 -132 -5 -131 3 -151 -4 -138 -46 9 -30
-14 -25 -58 11 -43 35 -28 34 -232 24 -106 -4 -171 -12 -191 -21 -17 -8 -46
-14 -65 -13 -19 2 -51 -6 -72 -15 -24 -12 -46 -16 -65 -11 -15 4 -36 6 -47 5
-11 0 -79 -2 -152 -4 -72 -2 -137 -7 -144 -12 -7 -4 -83 -9 -168 -10 -86 -2
-201 -7 -257 -13 -68 -7 -121 -7 -163 0 -35 5 -70 8 -79 5 -18 -5 -101 -14
-196 -21 -30 -2 -64 -9 -75 -15 -11 -5 -46 -14 -78 -20 -122 -20 -214 -40
-232 -50 -11 -5 -29 -10 -40 -10 -11 0 -55 -16 -98 -36 -53 -24 -99 -37 -143
-41 -36 -3 -79 -14 -96 -24 -17 -11 -41 -19 -53 -19 -12 0 -44 -12 -71 -26
-27 -14 -87 -36 -134 -49 -46 -13 -102 -35 -123 -49 -21 -14 -43 -26 -50 -26
-18 0 -16 19 2 26 8 4 15 12 15 20 0 8 7 14 15 14 8 0 15 5 15 11 0 5 13 15
29 20 16 6 32 16 34 23 3 8 18 16 32 20 15 4 34 14 42 21 8 8 23 15 32 15 10
0 24 7 31 15 7 8 17 15 23 15 9 0 69 26 130 56 16 8 33 14 39 14 6 0 29 8 52
19 84 38 117 51 131 51 8 0 34 8 57 19 90 39 343 112 413 118 22 2 87 10 145
18 58 8 249 20 425 25 399 14 623 26 653 35 29 9 61 72 96 190 30 98 33 104
67 185 26 61 76 144 124 205 18 22 34 45 36 51 2 6 17 26 32 45 15 19 61 78
101 131 148 196 245 288 379 362 136 75 240 127 279 142 121 45 205 64 277 64
42 0 94 5 116 11 38 11 202 32 370 48 146 14 446 12 505 -3z m3820 -47 c0 -27
-2 -30 -15 -19 -24 20 -19 39 13 49 1 1 2 -13 2 -30z m1418 -6 c4 -36 -8 -42
-32 -17 -25 24 -21 56 7 52 17 -2 23 -11 25 -35z m532 1 c0 -14 -6 -24 -14
-24 -15 0 -25 27 -19 47 7 20 33 2 33 -23z m-1517 -360 c9 -9 -23 -54 -38 -54
-6 0 -20 -16 -31 -35 -19 -35 -33 -31 -29 8 1 12 3 34 4 49 1 16 8 28 19 31
27 7 68 8 75 1z m275 -40 c3 -47 -12 -77 -28 -54 -11 17 -13 83 -3 94 15 15
28 -2 31 -40z m1236 20 c-1 -10 -4 -36 -7 -57 -5 -24 -2 -50 8 -74 20 -49 19
-96 -4 -124 l-20 -24 -15 36 c-8 19 -22 41 -30 49 -24 19 -19 33 15 52 29 17
30 20 29 85 -2 87 -2 85 13 80 6 -2 12 -13 11 -23z m-574 -159 c25 -47 -46
-102 -77 -60 -16 23 -17 69 -1 95 11 18 14 18 39 3 15 -9 33 -26 39 -38z
m-508 18 c6 -26 -20 -98 -42 -118 -28 -26 -48 -12 -55 38 -10 64 -4 81 30 88
51 11 63 10 67 -8z m1352 0 c8 -21 -10 -41 -24 -27 -11 11 -3 44 10 44 4 0 11
-8 14 -17z m-1854 -99 c0 -24 -5 -34 -15 -34 -22 0 -30 27 -16 56 15 33 31 22
31 -22z m1248 -362 c10 -7 10 -16 0 -48 -15 -46 -29 -48 -42 -5 -14 49 6 75
42 53z m-294 -88 c11 -29 -6 -42 -33 -25 -12 8 -12 12 -2 25 17 20 27 20 35 0z
m-6708 -462 c13 -9 26 -42 16 -42 -8 0 -42 37 -42 45 0 7 13 6 26 -3z m151
-145 c23 -18 43 -37 43 -43 0 -7 10 -15 23 -19 l22 -8 -22 -4 c-31 -6 -123 58
-123 86 0 6 -4 11 -10 11 -5 0 -10 5 -10 11 0 16 27 4 77 -34z m198 -144 c29
-14 40 -15 55 -5 25 15 30 15 30 -2 0 -15 -29 -23 -86 -25 -33 -1 -60 21 -49
39 8 13 8 13 50 -7z m260 7 c4 -6 -6 -10 -24 -10 -16 0 -32 -4 -35 -9 -9 -13
-52 -19 -70 -9 -31 17 -16 27 47 31 34 2 65 4 69 5 4 1 10 -2 13 -8z m-774
-11 c24 -12 16 -29 -15 -29 -29 0 -39 10 -25 27 14 16 15 16 40 2z m993 2 c4
-5 21 -5 41 2 27 8 41 7 60 -3 21 -11 32 -11 61 -1 25 9 39 10 48 2 8 -7 78
-13 166 -16 154 -5 234 -21 292 -59 25 -16 108 -12 108 6 0 6 22 8 53 5 161
-16 207 -24 207 -37 0 -13 -33 -21 -77 -20 -21 1 -71 -3 -111 -9 -66 -10 -316
-7 -402 4 -94 12 -177 28 -200 40 -14 7 -56 15 -95 19 -38 4 -79 13 -91 21
-12 7 -39 15 -60 17 -27 2 -40 8 -42 21 -2 11 3 17 17 17 11 0 22 -4 25 -9z
m-1452 -26 c38 -9 34 -32 -12 -57 -30 -17 -47 -19 -118 -14 -68 5 -84 4 -88
-9 -7 -18 -61 -17 -68 2 -3 7 -1 13 5 13 6 0 8 7 5 16 -10 26 59 49 158 52 49
2 101 0 118 -3z m-317 -34 c7 -12 -12 -24 -25 -16 -11 7 -4 25 10 25 5 0 11
-4 15 -9z m-2205 -69 c0 -13 -12 -22 -22 -16 -10 6 -1 24 13 24 5 0 9 -4 9 -8z
m5057 2 c-3 -3 -12 -4 -19 -1 -8 3 -5 6 6 6 11 1 17 -2 13 -5z m-3000 -10 c-3
-3 -12 -4 -19 -1 -8 3 -5 6 6 6 11 1 17 -2 13 -5z m1936 -16 c15 -6 27 -14 27
-19 0 -5 7 -6 15 -2 9 3 24 -2 34 -12 15 -13 29 -15 64 -10 35 5 47 3 62 -11
17 -17 16 -18 -1 -24 -11 -4 -75 -8 -144 -10 -69 -1 -141 -3 -160 -3 -82 -2
-150 4 -150 13 0 6 22 10 48 10 27 0 56 6 66 13 17 13 16 14 -13 26 -32 14
-41 36 -18 44 20 7 140 -3 170 -15z m-2098 -3 c0 -12 -60 -19 -83 -10 -15 6
-15 8 3 16 26 11 80 7 80 -6z m70 5 c3 -5 -3 -10 -15 -10 -12 0 -18 5 -15 10
3 6 10 10 15 10 5 0 12 -4 15 -10z m-2005 -14 c0 -3 -4 -8 -10 -11 -5 -3 -10
-1 -10 4 0 6 5 11 10 11 6 0 10 -2 10 -4z m5185 -42 c39 -9 87 -18 108 -20 20
-2 47 -8 58 -15 11 -6 54 -13 95 -16 41 -3 77 -10 80 -15 3 -4 -4 -20 -16 -35
l-21 -27 23 -18 c13 -10 29 -16 36 -13 6 2 12 0 12 -6 0 -6 -20 -9 -47 -7 -40
3 -48 6 -51 25 -4 26 -58 49 -78 32 -9 -7 -24 -7 -51 0 -21 6 -56 11 -78 11
-22 0 -69 7 -103 15 -45 11 -129 16 -279 17 -118 1 -216 5 -218 9 -3 3 -15 4
-29 2 -29 -6 -42 12 -25 33 10 13 31 14 123 9 124 -6 127 -6 209 -2 35 2 62 9
67 17 8 14 75 30 100 24 8 -2 47 -11 85 -20z m-5215 7 c0 -6 -4 -13 -10 -16
-5 -3 -10 1 -10 9 0 9 5 16 10 16 6 0 10 -4 10 -9z m4342 -33 c-9 -9 -15 -9
-24 0 -9 9 -7 12 12 12 19 0 21 -3 12 -12z m-4379 -18 c-3 -11 -9 -20 -14 -20
-5 0 -9 9 -9 20 0 11 6 20 14 20 9 0 12 -7 9 -20z m-33 -49 c0 -6 -4 -13 -10
-16 -5 -3 -10 1 -10 9 0 9 5 16 10 16 6 0 10 -4 10 -9z m6183 -37 c4 -4 23 -8
44 -9 93 -5 180 -19 198 -31 11 -8 34 -14 52 -14 19 0 66 -9 106 -19 110 -30
158 -41 207 -51 25 -5 67 -16 94 -25 27 -8 62 -15 78 -15 16 0 39 -6 51 -14
12 -7 51 -21 87 -31 36 -9 74 -22 85 -29 11 -7 33 -16 49 -20 16 -4 41 -16 54
-27 14 -10 31 -19 39 -19 15 0 75 -28 83 -40 3 -3 30 -21 61 -38 31 -18 62
-39 69 -47 7 -8 29 -15 49 -15 26 0 45 -8 69 -31 17 -16 32 -36 32 -43 0 -19
-52 -7 -68 16 -7 10 -25 18 -41 18 -16 0 -34 7 -41 15 -7 8 -26 15 -42 15 -16
0 -31 6 -34 15 -4 8 -14 15 -24 15 -10 0 -39 9 -65 20 -26 11 -55 20 -65 20
-9 0 -23 7 -30 15 -7 8 -22 15 -34 15 -11 0 -30 7 -40 15 -11 8 -28 15 -38 15
-16 0 -39 8 -136 51 -23 11 -51 19 -61 19 -10 0 -24 7 -31 15 -7 8 -28 17 -49
21 -20 4 -48 13 -63 20 -15 8 -43 14 -63 14 -20 0 -46 6 -58 14 -12 7 -47 16
-77 19 -30 3 -68 12 -85 21 -16 9 -45 16 -63 16 -18 0 -49 7 -69 15 -19 8 -57
15 -83 15 -34 0 -52 5 -65 20 -10 11 -28 20 -41 20 -12 0 -29 7 -38 15 -8 8
-21 15 -28 15 -7 0 -20 5 -28 10 -11 7 -8 10 16 10 17 0 34 -3 37 -6z m-6227
-51 c-10 -26 -18 -8 -9 23 5 21 8 24 11 11 2 -10 1 -25 -2 -34z m6033 30 c19
-11 35 -30 40 -48 6 -26 4 -32 -18 -47 -15 -11 -29 -14 -36 -8 -6 5 -23 11
-39 14 -36 6 -33 2 -41 59 l-7 47 35 0 c19 0 49 -8 66 -17z m-6060 -85 c-5
-18 -9 -34 -9 -35 0 -2 -4 -3 -8 -3 -4 0 -6 16 -4 35 2 20 10 35 17 35 11 0
11 -8 4 -32z m6434 -44 c14 -15 23 -34 20 -44 -5 -20 -43 -33 -67 -24 -17 7
-41 69 -31 84 12 19 54 10 78 -16z m-6463 -11 c-1 -26 -14 -53 -20 -43 -9 15
-1 50 11 50 5 0 9 -3 9 -7z m6750 -73 c0 -20 5 -30 15 -30 8 0 19 -9 25 -20 8
-14 21 -20 48 -21 20 0 30 -3 22 -6 -24 -9 -70 -65 -70 -85 0 -30 -18 -20 -25
15 -4 17 -12 35 -17 38 -9 6 -10 20 -6 64 1 11 -1 32 -5 48 -5 16 -3 27 3 27
5 0 10 -13 10 -30z m-6827 -95 c4 -8 2 -17 -3 -20 -6 -4 -10 3 -10 14 0 25 6
27 13 6z m7933 -200 c4 -8 14 -15 23 -15 10 0 26 -7 37 -15 10 -8 29 -15 41
-15 24 0 93 -43 106 -66 4 -8 18 -14 30 -14 19 0 53 -24 120 -84 22 -20 22
-62 0 -75 -23 -12 -44 0 -116 66 -32 29 -73 60 -90 69 -18 9 -40 23 -50 32 -9
8 -25 20 -36 26 -121 71 -121 71 -104 89 21 21 32 21 39 2z m661 -131 c3 -8 0
-21 -6 -27 -10 -9 -16 -8 -27 7 -8 11 -14 23 -14 28 0 15 41 8 47 -8z m263
-70 c0 -8 -4 -12 -10 -9 -5 3 -10 10 -10 16 0 5 5 9 10 9 6 0 10 -7 10 -16z
m36 -71 c-12 -12 -29 15 -21 34 7 17 8 16 18 -5 5 -12 7 -25 3 -29z m34 -37
c0 -7 11 -26 25 -42 40 -45 45 -53 45 -62 0 -5 9 -19 20 -32 11 -13 20 -29 20
-35 0 -7 7 -15 15 -19 8 -3 15 -13 15 -23 0 -13 -6 -11 -30 12 -16 16 -30 33
-30 37 0 9 -3 13 -49 69 -42 49 -64 109 -41 109 6 0 10 -6 10 -14z m-8790
-337 c0 -5 -7 -9 -15 -9 -9 0 -15 9 -15 21 0 18 2 19 15 9 8 -7 15 -16 15 -21z
m9099 -191 c-1 -31 -1 -31 -8 -8 -5 14 -6 28 -4 33 9 15 13 6 12 -25z m111
-484 c0 -55 -13 -72 -24 -31 -8 29 -8 82 0 90 15 15 24 -8 24 -59z m-43 -391
c-3 -10 -5 -4 -5 12 0 17 2 24 5 18 2 -7 2 -21 0 -30z m-7274 -604 c-8 -29
-13 -23 -13 14 0 22 3 28 9 18 5 -7 6 -22 4 -32z m1275 -594 c29 -20 49 -25
99 -25 35 0 72 -5 82 -12 18 -11 18 -12 0 -43 -19 -31 -19 -32 2 -51 19 -17
19 -19 2 -25 -10 -4 -32 -8 -50 -8 -46 -1 -63 -11 -63 -35 0 -13 -3 -25 -6
-29 -8 -8 -70 25 -109 57 -28 24 -28 26 -11 44 16 18 16 23 2 57 -19 45 -20
61 -3 80 16 18 12 19 55 -10z m274 -61 c22 -11 33 -13 41 -5 23 23 97 5 97
-24 0 -21 -34 -27 -80 -15 -23 6 -54 10 -68 9 -34 -4 -52 7 -52 32 0 23 21 24
62 3z m-14 -81 c2 -8 -6 -13 -22 -13 -25 0 -33 10 -19 24 10 10 36 3 41 -11z
m127 -144 c8 -72 -3 -93 -35 -64 -23 21 -29 110 -7 118 29 12 35 5 42 -54z
m72 7 c-4 -9 -11 -16 -17 -16 -11 0 -14 53 -3 64 11 10 27 -30 20 -48z m3521
-34 c9 -7 8 -13 -8 -27 -20 -18 -20 -18 -20 8 0 28 6 32 28 19z m-4313 -138
c12 -5 14 -9 4 -14 -15 -10 -41 -1 -33 11 6 11 8 11 29 3z m4425 -5332 c-38
-4 -44 0 -35 27 6 21 6 21 37 -2 l30 -22 -32 -3z m90 44 c0 -3 -4 -8 -10 -11
-5 -3 -10 -1 -10 4 0 6 5 11 10 11 6 0 10 -2 10 -4z m1589 -1059 c8 -10 7 -17
-1 -25 -16 -16 -43 -15 -58 3 -10 12 -8 16 11 24 32 13 35 13 48 -2z m96 -7
c3 -5 1 -10 -4 -10 -6 0 -11 5 -11 10 0 6 2 10 4 10 3 0 8 -4 11 -10z m35
-110 c0 -5 -8 -10 -17 -10 -15 0 -16 2 -3 10 19 12 20 12 20 0z"/>
<path d="M5325 8390 c-3 -5 -1 -10 4 -10 6 0 11 5 11 10 0 6 -2 10 -4 10 -3 0
-8 -4 -11 -10z"/>
<path d="M12777 7691 c-3 -12 1 -22 9 -25 10 -4 14 2 14 19 0 30 -16 33 -23 6z"/>
<path d="M4590 7571 c0 -10 -9 -30 -21 -45 -15 -19 -17 -27 -7 -30 7 -1 29 -8
48 -14 28 -10 36 -9 43 3 4 8 15 15 22 15 22 0 18 43 -5 68 -27 28 -80 30 -80
3z"/>
<path d="M5122 7584 c-16 -7 -5 -24 16 -24 10 0 34 -9 55 -20 20 -11 43 -20
52 -20 8 0 36 -12 62 -28 26 -15 70 -39 96 -52 27 -14 60 -37 75 -52 15 -15
30 -28 35 -28 12 0 7 44 -8 64 -8 11 -15 31 -15 46 0 14 -13 39 -28 57 -24 25
-40 32 -98 41 -88 14 -225 23 -242 16z"/>
<path d="M4754 7552 c-24 -19 -39 -52 -24 -52 6 0 19 -9 29 -19 17 -17 21 -18
32 -5 15 19 48 18 71 -3 17 -15 19 -14 43 12 46 48 30 62 -90 79 -30 4 -45 1
-61 -12z"/>
<path d="M6345 7485 c-5 -2 -26 -6 -46 -9 -36 -6 -37 -7 -29 -42 12 -51 27
-64 46 -39 14 18 15 14 12 -48 -2 -37 -1 -67 1 -67 8 0 97 45 111 56 33 26
135 76 174 84 99 22 180 48 166 53 -16 6 -418 17 -435 12z"/>
<path d="M3602 7440 c0 -14 2 -19 5 -12 2 6 2 18 0 25 -3 6 -5 1 -5 -13z"/>
<path d="M3838 7433 c7 -3 16 -2 19 1 4 3 -2 6 -13 5 -11 0 -14 -3 -6 -6z"/>
<path d="M6580 7322 c-31 -16 -57 -36 -61 -49 -7 -20 -2 -26 40 -48 39 -19 51
-22 64 -12 17 14 33 122 19 131 -5 3 -33 -7 -62 -22z"/>
<path d="M5531 7324 c0 -11 3 -14 6 -6 3 7 2 16 -1 19 -3 4 -6 -2 -5 -13z"/>
<path d="M5208 7323 c7 -3 16 -2 19 1 4 3 -2 6 -13 5 -11 0 -14 -3 -6 -6z"/>
<path d="M7631 7302 c-5 -9 -12 -32 -16 -49 -5 -25 -12 -33 -28 -33 -12 0 -38
-3 -58 -6 -29 -5 -41 -2 -64 20 -15 14 -31 26 -36 26 -4 0 -15 7 -23 16 -9 8
-16 11 -16 5 0 -6 -10 -11 -23 -11 -30 0 -67 -27 -67 -48 -1 -29 -26 -64 -55
-76 -25 -10 -26 -13 -13 -27 9 -8 56 -25 104 -38 49 -12 105 -26 125 -31 20
-6 49 -10 65 -10 38 0 51 -10 55 -40 4 -23 1 -25 -31 -24 -19 0 -51 3 -70 5
-32 4 -35 2 -31 -21 1 -14 12 -42 23 -63 16 -32 24 -38 43 -35 13 3 29 2 35
-2 14 -9 15 -106 3 -185 -8 -48 -10 -50 -46 -59 -40 -10 -63 4 -52 32 3 6 8
18 11 26 7 19 -23 46 -52 46 -44 0 -62 30 -62 105 0 37 -4 71 -9 76 -4 4 -46
11 -93 14 -117 9 -130 12 -130 35 0 10 5 22 11 25 7 5 5 14 -4 29 -9 14 -16
58 -19 121 -4 120 -12 139 -39 96 -10 -17 -23 -31 -28 -31 -6 0 -3 -19 6 -43
15 -41 15 -45 -6 -91 -16 -38 -24 -46 -34 -37 -8 6 -33 8 -65 4 -30 -3 -52 -2
-52 3 0 13 -54 44 -77 44 -10 0 -35 -18 -57 -40 -39 -40 -59 -49 -71 -30 -10
16 -25 12 -19 -5 4 -10 -4 -19 -25 -28 -46 -19 -28 -27 64 -27 71 0 87 3 119
25 20 14 41 25 46 25 6 0 10 4 10 9 0 17 29 6 68 -26 26 -21 43 -28 53 -23 18
12 29 -6 29 -47 0 -58 -22 -84 -34 -40 -6 22 -7 22 -21 -5 -9 -15 -24 -32 -35
-38 -11 -6 -20 -17 -20 -26 0 -8 -6 -14 -12 -12 -7 1 -33 -8 -57 -20 -31 -15
-48 -19 -57 -11 -21 17 -286 -3 -313 -25 -7 -6 -19 -11 -25 -11 -41 -1 -120
-32 -128 -50 -10 -22 22 -218 42 -255 6 -10 10 -27 10 -37 0 -10 18 -54 40
-98 22 -44 40 -88 40 -97 0 -10 9 -32 20 -50 22 -37 25 -70 9 -96 -9 -15 -6
-28 15 -68 14 -27 26 -55 26 -61 0 -7 5 -13 10 -13 6 0 10 -5 10 -11 0 -13 52
-98 61 -99 3 0 15 9 27 20 27 26 37 25 75 -4 34 -26 87 -41 87 -25 0 15 49 30
100 31 57 1 115 -19 130 -46 14 -27 74 -66 100 -66 11 0 20 -4 20 -10 0 -5 7
-7 15 -4 10 4 15 0 15 -10 0 -9 11 -22 25 -28 14 -6 34 -26 45 -45 20 -34 63
-58 87 -49 9 4 13 25 13 66 0 65 8 72 48 44 32 -22 27 -50 -17 -93 l-40 -39
28 -53 c30 -59 67 -91 105 -91 16 0 41 -15 68 -40 23 -21 53 -42 68 -46 41
-11 240 -8 300 6 76 17 166 64 236 122 32 27 73 57 89 66 32 18 145 133 145
148 0 5 12 25 28 44 45 59 138 244 152 305 7 32 5 41 -11 56 -16 15 -18 22 -8
50 6 17 9 47 7 66 -4 37 7 44 42 25 16 -9 19 -5 25 31 6 33 3 45 -13 62 -18
20 -20 32 -16 117 2 52 8 115 13 140 23 109 33 201 27 235 -11 54 -41 119 -70
148 -17 17 -26 37 -26 57 0 16 1 31 3 33 4 5 -65 87 -74 87 -6 0 -20 -11 -32
-24 -12 -13 -34 -26 -47 -28 -17 -2 -26 -10 -28 -25 -2 -13 -8 -23 -13 -23
-19 0 -8 -28 13 -33 39 -11 15 -14 -60 -9 l-74 4 7 34 c3 19 1 42 -4 53 -11
20 -53 36 -84 32 -10 -1 -28 4 -40 12 -12 8 -37 18 -56 22 -18 4 -54 18 -80
30 -61 31 -105 25 -132 -19 -19 -31 -19 -31 1 -40 32 -15 23 -26 -20 -26 -29
0 -40 4 -40 15 0 8 5 15 12 15 9 0 9 3 0 12 -7 7 -9 31 -5 69 5 46 2 62 -13
83 -11 14 -26 26 -35 26 -9 0 -33 11 -52 25 -34 22 -37 23 -46 7z m87 -70 c2
-7 -6 -12 -17 -12 -21 0 -27 11 -14 24 9 9 26 2 31 -12z m-98 -424 c0 -26 -4
-38 -14 -38 -17 0 -27 75 -12 90 14 14 26 -8 26 -52z m778 -50 c95 -32 131
-60 119 -93 -5 -13 -11 -13 -46 0 -37 13 -42 12 -65 -6 -14 -11 -34 -45 -46
-77 -12 -31 -30 -66 -40 -77 -28 -31 -32 -57 -17 -116 7 -30 12 -81 12 -114 0
-56 -2 -61 -28 -73 -21 -10 -26 -17 -18 -25 21 -21 11 -58 -29 -112 -22 -30
-40 -59 -40 -66 0 -6 9 -27 20 -45 17 -27 20 -46 18 -106 l-3 -73 -38 -3 -39
-3 4 48 3 48 -71 3 c-60 2 -73 0 -89 -18 -45 -50 -101 -4 -75 62 15 36 20 42
82 106 22 23 49 42 59 42 26 0 54 34 68 80 7 23 18 40 26 40 8 0 15 5 15 10 0
6 -4 10 -8 10 -5 0 -15 12 -23 27 -18 33 -88 67 -107 51 -10 -8 -17 -7 -30 5
-23 24 -3 44 26 26 27 -17 59 5 41 27 -6 8 -18 14 -25 14 -8 0 -14 6 -14 14 0
8 -6 16 -12 19 -10 3 -10 10 2 31 12 23 12 30 0 49 -7 12 -15 48 -17 81 -2 50
1 63 22 88 14 16 25 40 25 54 0 13 2 24 4 24 2 0 11 3 20 6 11 4 16 0 16 -14
0 -29 -11 -53 -21 -46 -5 3 -9 -2 -9 -10 0 -9 6 -16 14 -16 15 0 26 -21 26
-51 0 -21 24 -51 50 -63 8 -3 35 -17 59 -31 24 -14 48 -25 53 -25 10 0 0 42
-13 50 -4 3 -15 35 -24 72 -17 66 -17 68 4 94 12 15 21 36 21 48 0 22 25 66
38 66 4 0 49 -14 100 -32z m-1553 -147 c3 -5 -4 -13 -16 -16 -23 -8 -34 -1
-24 14 8 13 32 14 40 2z m-327 -183 c-6 -18 -28 -21 -28 -4 0 9 7 16 16 16 9
0 14 -5 12 -12z m469 -75 c-3 -3 -11 -2 -17 2 -8 5 -7 11 2 22 12 15 13 14 16
-1 2 -10 1 -20 -1 -23z m-132 -93 c-3 -5 -10 -10 -16 -10 -5 0 -9 5 -9 10 0 6
7 10 16 10 8 0 12 -4 9 -10z m1445 -645 c0 -8 -4 -15 -10 -15 -5 0 -7 7 -4 15
4 8 8 15 10 15 2 0 4 -7 4 -15z"/>
<path d="M8057 6515 c23 -32 43 -32 43 0 0 21 -5 25 -30 25 l-31 0 18 -25z"/>
<path d="M8169 7241 c-15 -17 -15 -21 1 -52 10 -19 27 -42 38 -52 20 -18 20
-17 30 40 9 50 8 60 -6 71 -21 16 -44 14 -63 -7z"/>
<path d="M6451 7227 c-5 -12 -21 -34 -36 -50 -28 -28 -27 -42 3 -42 23 0 38
-121 19 -145 -16 -18 -39 -71 -34 -76 2 -2 17 -7 34 -10 27 -5 34 -2 49 22 25
39 33 44 77 44 26 0 37 4 37 15 0 8 -9 15 -19 15 -28 0 -61 70 -61 130 0 28
-4 50 -9 50 -5 0 -11 13 -14 29 -8 37 -35 48 -46 18z"/>
<path d="M8350 7146 c0 -35 15 -40 34 -12 14 22 14 25 0 30 -27 10 -34 7 -34
-18z"/>
<path d="M6320 6994 c-12 -32 -12 -55 0 -74 7 -12 10 -11 15 5 4 11 13 35 21
53 18 42 18 42 -6 42 -13 0 -24 -10 -30 -26z"/>
<path d="M6165 6990 c-10 -17 5 -220 22 -295 30 -133 34 -145 43 -145 15 0 12
86 -6 165 -8 39 -14 106 -13 150 3 100 -21 165 -46 125z"/>
<path d="M7380 6993 c0 -5 5 -15 10 -23 7 -11 12 -12 21 -3 6 6 8 16 5 22 -8
12 -36 15 -36 4z"/>
<path d="M3240 6870 c-10 -23 -10 -37 -2 -55 6 -13 14 -47 18 -74 4 -28 11
-48 16 -45 5 3 7 13 4 22 -3 10 -2 42 2 73 8 54 -1 109 -18 109 -4 0 -13 -14
-20 -30z"/>
<path d="M3660 6735 c0 -9 6 -12 15 -9 8 4 12 10 9 15 -8 14 -24 10 -24 -6z"/>
<path d="M6250 6501 c0 -16 5 -33 10 -36 6 -4 10 6 10 24 0 16 -4 33 -10 36
-6 4 -10 -6 -10 -24z"/>
<path d="M8692 6228 c-7 -7 -12 -19 -12 -28 0 -9 -5 -21 -11 -27 -6 -6 -13
-71 -16 -150 -5 -111 -3 -142 7 -148 8 -5 15 -4 17 2 2 6 10 19 18 29 13 18
14 18 39 -5 18 -17 27 -38 32 -77 5 -46 15 -65 60 -122 30 -37 54 -73 54 -80
0 -7 7 -20 15 -29 20 -19 34 -9 82 64 l35 54 -27 39 c-29 42 -35 93 -20 171
10 53 -14 93 -75 124 -50 26 -100 33 -100 15 0 -5 -11 -10 -25 -10 -21 0 -25
5 -25 30 0 16 5 53 11 81 10 47 9 54 -7 66 -22 16 -36 17 -52 1z"/>
<path d="M5165 5156 c-103 -40 -101 -67 10 -120 41 -21 73 -41 70 -45 -5 -10
18 -21 42 -21 8 0 13 6 10 13 -2 6 -9 11 -15 10 -5 -1 -15 4 -22 12 -9 11 -7
18 9 34 17 17 34 21 80 21 33 0 63 5 66 10 10 16 -36 66 -81 89 -52 27 -93 26
-169 -3z"/>
<path d="M6072 5117 c-29 -12 -69 -38 -90 -57 -70 -67 -173 -130 -211 -130
-12 0 -36 -8 -54 -17 -18 -9 -35 -16 -39 -15 -5 1 -8 -4 -8 -12 0 -21 64 -39
110 -31 43 7 137 61 196 113 25 21 48 32 68 32 17 0 75 5 128 12 116 14 131 8
126 -56 l-2 -41 39 1 c58 2 123 23 152 50 l24 22 -54 40 c-59 44 -125 82 -143
82 -7 0 -25 7 -40 15 -42 22 -138 18 -202 -8z"/>
<path d="M5465 4830 c-27 -30 -30 -210 -4 -210 15 0 50 40 44 50 -4 6 9 10 29
10 19 0 41 6 48 14 8 7 25 17 37 21 23 7 24 6 17 -34 -7 -44 4 -52 37 -27 18
14 23 36 8 36 -5 0 -6 12 -2 28 6 21 2 33 -18 55 -29 30 -78 37 -87 12 -4 -8
-17 -15 -30 -15 -19 0 -24 5 -24 24 0 57 -23 71 -55 36z"/>
<path d="M4719 4494 c-13 -7 -32 -15 -41 -18 -12 -3 -18 -16 -18 -33 0 -40
-10 -50 -53 -58 -48 -9 -65 -26 -72 -73 -3 -20 -16 -67 -28 -104 l-21 -67 29
-32 c17 -17 57 -44 90 -60 33 -16 71 -36 85 -44 32 -19 52 -19 98 1 22 10 62
15 98 15 45 -1 66 3 78 15 14 14 36 15 164 9 89 -4 161 -12 182 -20 34 -14
125 -31 224 -42 34 -4 51 -1 57 8 13 22 -29 59 -66 59 -19 0 -42 9 -57 23 -40
37 -71 48 -143 52 -85 4 -102 8 -117 23 -7 7 -31 12 -54 12 -32 0 -45 5 -57
23 -13 20 -22 22 -107 22 -85 0 -93 2 -111 24 -11 13 -17 31 -15 38 3 8 8 40
11 71 7 67 -14 128 -48 141 -70 26 -85 28 -108 15z"/>
<path d="M6792 4339 c-20 -43 -20 -44 0 -94 11 -27 24 -51 29 -53 21 -8 6 -40
-33 -70 -56 -43 -80 -48 -153 -31 -63 14 -120 15 -195 4 -40 -7 -186 -9 -295
-5 -66 2 -154 -11 -166 -26 -24 -29 -5 -39 72 -36 68 3 77 1 104 -22 35 -30
49 -33 217 -41 70 -3 140 -10 155 -16 16 -6 61 -14 102 -19 43 -5 77 -14 82
-22 6 -9 33 -13 91 -13 66 0 92 -5 126 -23 60 -31 89 -29 110 9 9 18 27 43 40
57 16 18 22 37 22 73 0 26 -5 51 -11 54 -6 4 -7 19 -4 37 13 57 -13 118 -79
185 -67 69 -96 78 -114 38 -10 -22 -14 -24 -32 -13 -11 7 -20 20 -20 29 0 9
-6 22 -14 28 -12 10 -18 5 -34 -30z"/>
<path d="M5628 3993 c7 -3 16 -2 19 1 4 3 -2 6 -13 5 -11 0 -14 -3 -6 -6z"/>
<path d="M5419 3496 c-3 -3 -22 -8 -43 -11 -49 -6 -86 -30 -86 -55 0 -30 40
-90 65 -96 12 -3 32 -19 45 -36 12 -16 38 -37 58 -45 20 -8 41 -22 48 -31 12
-17 69 -28 225 -41 135 -12 220 -7 289 18 30 11 80 27 111 35 62 17 116 66
125 115 6 26 3 29 -32 36 -42 7 -89 29 -99 45 -4 6 -1 18 6 26 12 14 7 15 -46
10 -152 -15 -235 -17 -324 -6 -53 6 -125 16 -161 20 -36 5 -90 11 -120 15 -30
4 -58 4 -61 1z"/>
<path d="M6800 3190 c0 -5 7 -10 15 -10 8 0 15 5 15 10 0 6 -7 10 -15 10 -8 0
-15 -4 -15 -10z"/>
<path d="M10075 1190 c3 -5 15 -10 26 -10 10 0 19 5 19 10 0 6 -12 10 -26 10
-14 0 -23 -4 -19 -10z"/>
<path d="M10178 1153 c7 -3 16 -2 19 1 4 3 -2 6 -13 5 -11 0 -14 -3 -6 -6z"/>
<path d="M10307 1119 c7 -7 15 -10 18 -7 3 3 -2 9 -12 12 -14 6 -15 5 -6 -5z"/>
<path d="M11067 133 c-14 -13 -6 -33 13 -33 11 0 20 4 20 9 0 13 -26 32 -33
24z"/>
<path d="M1857 23 c-15 -14 -6 -23 24 -23 27 0 30 2 19 15 -13 16 -32 19 -43
8z"/>
</g>
</svg>
